<svg width="161" height="40" viewBox="0 0 161 40" fill="none" xmlns="http://www.w3.org/2000/svg">
<path d="M23.04 28.64C23.1467 27.0933 23.12 25.4533 22.96 23.72C22.8267 21.96 22.6933 20.2667 22.56 18.64C22.4267 16.9867 22.36 15.4933 22.36 14.16C22.36 12.8 22.5733 11.7333 23 10.96C22.0933 12.2133 21.24 13.4533 20.44 14.68C19.6667 15.88 18.9067 17.1333 18.16 18.44C17.4133 19.7467 16.68 21.1333 15.96 22.6C15.2667 24.04 14.5467 25.6133 13.8 27.32C13.4 28.2533 13.1333 28.9333 13 29.36C12.8933 29.7867 12.72 30 12.48 30C12.2667 30 12.12 29.9067 12.04 29.72C11.9867 29.5067 12.0667 29.1467 12.28 28.64C13.0267 26.7733 13.6267 24.9067 14.08 23.04C14.5333 21.1733 14.8267 19.4 14.96 17.72C15.0933 16.04 15.08 14.48 14.92 13.04C14.76 11.6 14.44 10.3467 13.96 9.28C13.5067 8.21333 12.8933 7.38667 12.12 6.8C11.3733 6.18666 10.48 5.88 9.44 5.88C8.42667 5.88 7.53333 6.09333 6.76 6.52C6.01333 6.94667 5.37333 7.52 4.84 8.24C4.33333 8.93333 3.94667 9.74667 3.68 10.68C3.41333 11.5867 3.28 12.5467 3.28 13.56C3.22667 13.72 3.13333 13.8133 3 13.84C2.89333 13.8667 2.84 13.8133 2.84 13.68C2.78667 12.4 2.94667 11.1867 3.32 10.04C3.69333 8.86667 4.22667 7.84 4.92 6.96C5.61333 6.08 6.46667 5.38667 7.48 4.88C8.52 4.34667 9.68 4.08 10.96 4.08C12.6133 4.08 13.9067 4.6 14.84 5.64C15.8 6.68 16.4267 8.09333 16.72 9.88C17.04 11.64 17.04 13.6933 16.72 16.04C16.4 18.3867 15.7867 20.8667 14.88 23.48C15.6 21.96 16.4 20.4 17.28 18.8C18.16 17.2 19.0933 15.64 20.08 14.12C21.0933 12.6 22.1467 11.16 23.24 9.8C24.3333 8.41333 25.44 7.2 26.56 6.16C26.6933 6.10667 26.8 6.21333 26.88 6.48C26.96 6.74667 26.9467 6.96 26.84 7.12C26.4133 7.30667 26.04 7.6 25.72 8C25.2667 8.58667 24.9467 9.33333 24.76 10.24C24.6 11.12 24.5067 12.1067 24.48 13.2C24.48 14.2667 24.5333 15.4 24.64 16.6C24.7467 17.7733 24.8533 18.96 24.96 20.16C25.0667 21.3333 25.1467 22.48 25.2 23.6C25.2533 24.72 25.2267 25.7467 25.12 26.68C25.7867 25.72 26.5333 24.8 27.36 23.92C28.1867 23.04 29.0267 22.16 29.88 21.28C30.7333 20.4 31.56 19.52 32.36 18.64C33.16 17.7333 33.8667 16.7867 34.48 15.8C35.12 14.7867 35.6267 13.72 36 12.6C36.4 11.4533 36.6 10.2133 36.6 8.88C36.6 8 36.4667 7.30666 36.2 6.8C35.96 6.29333 35.6133 6.04 35.16 6.04C34.84 6.04 34.56 6.2 34.32 6.52C34.1067 6.84 33.8933 7.2 33.68 7.6C33.6 7.65333 33.52 7.65333 33.44 7.6C33.36 7.54667 33.32 7.45333 33.32 7.32C33.6133 6.52 34.0267 5.81333 34.56 5.2C35.12 4.58667 35.6667 4.28 36.2 4.28C37.08 4.28 37.7333 4.62667 38.16 5.32C38.6133 6.01333 38.84 6.86667 38.84 7.88C38.84 9.42667 38.5867 10.84 38.08 12.12C37.6 13.3733 36.96 14.56 36.16 15.68C35.36 16.7733 34.44 17.8267 33.4 18.84C32.3867 19.8533 31.3467 20.88 30.28 21.92C29.2133 22.96 28.16 24.0533 27.12 25.2C26.1067 26.3467 25.2 27.6 24.4 28.96C24.1867 29.28 23.9867 29.5333 23.8 29.72C23.64 29.9067 23.4533 30 23.24 30C23.1067 30 23.0133 29.96 22.96 29.88C22.9333 29.8 22.92 29.6933 22.92 29.56C22.92 29.4267 22.9333 29.28 22.96 29.12C23.0133 28.96 23.04 28.8 23.04 28.64ZM39.2291 20.92C39.2291 21.32 39.1891 21.7733 39.1091 22.28C39.0291 22.7867 38.9224 23.3067 38.7891 23.84C39.3224 22.56 39.9091 21.56 40.5491 20.84C41.1891 20.12 41.8824 19.76 42.6291 19.76C43.0291 19.76 43.3357 19.8533 43.5491 20.04C43.7624 20.2267 43.8691 20.4667 43.8691 20.76C43.8691 21.0267 43.7624 21.3733 43.5491 21.8C43.3624 22.2267 43.2024 22.52 43.0691 22.68C43.0157 22.7067 42.9624 22.7067 42.9091 22.68C42.8557 22.6267 42.8291 22.5733 42.8291 22.52C42.8291 22.3333 42.7491 22.1733 42.5891 22.04C42.4557 21.9067 42.2424 21.84 41.9491 21.84C41.0157 21.84 40.1624 22.48 39.3891 23.76C38.6424 25.0133 37.9491 26.8267 37.3091 29.2C37.2824 29.3333 37.1891 29.4533 37.0291 29.56C36.8691 29.64 36.6824 29.72 36.4691 29.8C36.2824 29.8533 36.0824 29.9067 35.8691 29.96C35.6557 29.9867 35.4691 30 35.3091 30C35.0157 30 34.9357 29.84 35.0691 29.52C35.3091 28.96 35.5357 28.36 35.7491 27.72C35.9891 27.0533 36.2024 26.3867 36.3891 25.72C36.5757 25.0533 36.7357 24.4133 36.8691 23.8C37.0024 23.16 37.1091 22.5733 37.1891 22.04C37.2424 21.64 37.2557 21.3333 37.2291 21.12C37.2291 20.9067 37.1224 20.8 36.9091 20.8C36.6424 20.8 36.3624 20.92 36.0691 21.16C35.8024 21.3733 35.5491 21.6533 35.3091 22C35.2024 22.08 35.0957 22.0933 34.9891 22.04C34.9091 21.96 34.8957 21.8667 34.9491 21.76C35.1091 21.5467 35.2957 21.3333 35.5091 21.12C35.7491 20.88 36.0024 20.6667 36.2691 20.48C36.5624 20.2667 36.8557 20.0933 37.1491 19.96C37.4691 19.8267 37.7891 19.76 38.1091 19.76C38.5357 19.76 38.8291 19.8667 38.9891 20.08C39.1491 20.2667 39.2291 20.5467 39.2291 20.92ZM48.6256 18.04C48.5456 18.12 48.4523 18.12 48.3456 18.04C48.2656 17.96 48.199 17.8533 48.1456 17.72C48.0923 17.56 48.0656 17.4 48.0656 17.24C48.0656 17.0533 48.1056 16.8933 48.1856 16.76C48.479 16.3867 48.9056 15.92 49.4656 15.36C50.0523 14.7733 50.6523 14.28 51.2656 13.88C51.319 13.8533 51.3856 13.88 51.4656 13.96C51.5456 14.0133 51.5723 14.0667 51.5456 14.12C50.9856 14.6267 50.4523 15.24 49.9456 15.96C49.439 16.6533 48.999 17.3467 48.6256 18.04ZM44.3456 22.56C44.2656 22.6133 44.199 22.6 44.1456 22.52C44.0923 22.4133 44.079 22.32 44.1056 22.24C45.0923 21.44 46.4656 20.6133 48.2256 19.76C48.439 19.76 48.5456 19.88 48.5456 20.12C48.199 20.7333 47.8523 21.4 47.5056 22.12C47.1856 22.84 46.8923 23.56 46.6256 24.28C46.3856 24.9733 46.1856 25.6533 46.0256 26.32C45.8656 26.96 45.7856 27.4933 45.7856 27.92C45.7856 28.4533 45.9723 28.72 46.3456 28.72C46.639 28.72 46.919 28.6 47.1856 28.36C47.479 28.0933 47.8123 27.76 48.1856 27.36C48.239 27.3067 48.3056 27.32 48.3856 27.4C48.4656 27.4533 48.479 27.5467 48.4256 27.68C47.839 28.3733 47.2523 28.9333 46.6656 29.36C46.1056 29.7867 45.559 30 45.0256 30C44.0923 30 43.6256 29.56 43.6256 28.68C43.6256 28.2 43.6923 27.64 43.8256 27C43.9856 26.3333 44.1856 25.6667 44.4256 25C44.6923 24.3067 44.9723 23.64 45.2656 23C45.5856 22.3333 45.9056 21.76 46.2256 21.28C45.9323 21.44 45.599 21.64 45.2256 21.88C44.879 22.12 44.5856 22.3467 44.3456 22.56ZM57.7863 19.96C57.9196 20.0133 57.9729 20.0933 57.9463 20.2C57.9196 20.28 57.7996 20.3467 57.5863 20.4C57.1863 20.4 56.7196 20.4133 56.1863 20.44C55.6796 20.4667 55.1329 20.5067 54.5463 20.56C54.0129 21.8667 53.5729 23.1467 53.2263 24.4C52.8796 25.6267 52.7063 26.6267 52.7063 27.4C52.7063 28.3067 53.0529 28.76 53.7463 28.76C54.4396 28.76 55.2129 28.16 56.0663 26.96C56.1463 26.9067 56.2129 26.9067 56.2663 26.96C56.3463 27.0133 56.3729 27.1067 56.3463 27.24C55.8929 27.9867 55.3196 28.64 54.6263 29.2C53.9329 29.7333 53.2529 30 52.5863 30C51.8929 30 51.3729 29.84 51.0263 29.52C50.7063 29.1733 50.5463 28.7067 50.5463 28.12C50.5463 27.3467 50.7329 26.28 51.1063 24.92C51.4796 23.56 51.9596 22.1733 52.5463 20.76C51.8529 20.84 51.2129 20.9467 50.6263 21.08C50.4929 21.0533 50.4529 20.9867 50.5063 20.88C50.5863 20.7733 50.7063 20.6667 50.8663 20.56C51.0529 20.4267 51.2663 20.32 51.5063 20.24C51.7463 20.1333 51.9729 20.08 52.1863 20.08C52.2929 20.08 52.3996 20.08 52.5063 20.08C52.6129 20.08 52.7196 20.0667 52.8263 20.04C53.1729 19.2667 53.5329 18.52 53.9062 17.8C54.2796 17.08 54.6529 16.4267 55.0263 15.84C55.1863 15.6533 55.3996 15.4933 55.6663 15.36C55.9596 15.2 56.2396 15.08 56.5063 15C56.7729 14.92 56.9863 14.88 57.1463 14.88C57.3329 14.8533 57.4129 14.8933 57.3863 15C56.9329 15.6933 56.4796 16.4667 56.0263 17.32C55.5996 18.1733 55.1863 19.0667 54.7862 20C55.2929 19.9733 55.7996 19.96 56.3063 19.96C56.8396 19.96 57.3329 19.96 57.7863 19.96ZM65.8472 21.76C65.8472 23.28 63.8339 24.32 59.8072 24.88C59.7805 25.1467 59.7539 25.4133 59.7272 25.68C59.7272 25.9467 59.7272 26.2267 59.7272 26.52C59.7272 27.2133 59.8872 27.7467 60.2072 28.12C60.5272 28.4933 61.0339 28.68 61.7272 28.68C62.2339 28.68 62.7539 28.5333 63.2872 28.24C63.8205 27.9467 64.2472 27.5733 64.5672 27.12C64.6739 27.0667 64.7539 27.0933 64.8072 27.2C64.8605 27.28 64.8739 27.3733 64.8472 27.48C64.3139 28.1733 63.6339 28.7733 62.8072 29.28C62.0072 29.76 61.1405 30 60.2072 30C59.2739 30 58.5939 29.7733 58.1672 29.32C57.7672 28.84 57.5672 28.1733 57.5672 27.32C57.5672 26.4933 57.7405 25.64 58.0872 24.76C58.4339 23.8533 58.8739 23.0267 59.4072 22.28C59.9672 21.5333 60.5939 20.9333 61.2872 20.48C62.0072 20 62.7272 19.76 63.4472 19.76C64.1672 19.76 64.7405 19.9733 65.1672 20.4C65.6205 20.8 65.8472 21.2533 65.8472 21.76ZM62.3672 20.8C61.7539 20.8 61.2205 21.0933 60.7672 21.68C60.3405 22.24 60.0472 23.12 59.8872 24.32C61.1672 24.1867 62.1139 23.9467 62.7272 23.6C63.3405 23.2267 63.6472 22.7733 63.6472 22.24C63.6472 21.84 63.5272 21.5067 63.2872 21.24C63.0472 20.9467 62.7405 20.8 62.3672 20.8ZM71.2994 20.92C71.2994 21.32 71.2594 21.7733 71.1794 22.28C71.0994 22.7867 70.9927 23.3067 70.8594 23.84C71.3927 22.56 71.9794 21.56 72.6194 20.84C73.2594 20.12 73.9527 19.76 74.6994 19.76C75.0994 19.76 75.406 19.8533 75.6194 20.04C75.8327 20.2267 75.9394 20.4667 75.9394 20.76C75.9394 21.0267 75.8327 21.3733 75.6194 21.8C75.4327 22.2267 75.2727 22.52 75.1394 22.68C75.086 22.7067 75.0327 22.7067 74.9794 22.68C74.926 22.6267 74.8994 22.5733 74.8994 22.52C74.8994 22.3333 74.8194 22.1733 74.6594 22.04C74.526 21.9067 74.3127 21.84 74.0194 21.84C73.086 21.84 72.2327 22.48 71.4594 23.76C70.7127 25.0133 70.0194 26.8267 69.3794 29.2C69.3527 29.3333 69.2594 29.4533 69.0994 29.56C68.9394 29.64 68.7527 29.72 68.5394 29.8C68.3527 29.8533 68.1527 29.9067 67.9394 29.96C67.726 29.9867 67.5394 30 67.3794 30C67.086 30 67.006 29.84 67.1394 29.52C67.3794 28.96 67.606 28.36 67.8194 27.72C68.0594 27.0533 68.2727 26.3867 68.4594 25.72C68.646 25.0533 68.806 24.4133 68.9394 23.8C69.0727 23.16 69.1794 22.5733 69.2594 22.04C69.3127 21.64 69.326 21.3333 69.2994 21.12C69.2994 20.9067 69.1927 20.8 68.9794 20.8C68.7127 20.8 68.4327 20.92 68.1394 21.16C67.8727 21.3733 67.6194 21.6533 67.3794 22C67.2727 22.08 67.166 22.0933 67.0594 22.04C66.9794 21.96 66.966 21.8667 67.0194 21.76C67.1794 21.5467 67.366 21.3333 67.5794 21.12C67.8194 20.88 68.0727 20.6667 68.3394 20.48C68.6327 20.2667 68.926 20.0933 69.2194 19.96C69.5394 19.8267 69.8594 19.76 70.1794 19.76C70.606 19.76 70.8994 19.8667 71.0594 20.08C71.2194 20.2667 71.2994 20.5467 71.2994 20.92ZM80.5359 19.76C81.1226 19.76 81.5893 19.84 81.9359 20C82.3093 20.16 82.4959 20.36 82.4959 20.6C82.4959 20.8933 82.4159 21.2267 82.2559 21.6C82.1226 21.9733 81.9893 22.28 81.8559 22.52C81.8026 22.5733 81.7359 22.5867 81.6559 22.56C81.5759 22.5067 81.5359 22.4267 81.5359 22.32C81.6159 22.1333 81.6559 21.8667 81.6559 21.52C81.6559 21.1467 81.5493 20.84 81.3359 20.6C81.1493 20.36 80.8826 20.24 80.5359 20.24C80.0826 20.24 79.7093 20.3867 79.4159 20.68C79.1493 20.9467 79.0159 21.3333 79.0159 21.84C79.0159 22.2667 79.1226 22.68 79.3359 23.08C79.5759 23.4533 79.8293 23.84 80.0959 24.24C80.3893 24.6133 80.6559 25.0267 80.8959 25.48C81.1359 25.9067 81.2559 26.4 81.2559 26.96C81.2559 27.92 80.8693 28.6667 80.0959 29.2C79.3226 29.7333 78.3093 30 77.0559 30C76.1493 30 75.4293 29.8533 74.8959 29.56C74.3893 29.2667 74.1359 28.9467 74.1359 28.6C74.1359 28.4933 74.1759 28.3467 74.2559 28.16C74.3359 27.9733 74.4426 27.7733 74.5759 27.56C74.7093 27.3467 74.8559 27.1333 75.0159 26.92C75.1759 26.7067 75.3493 26.5333 75.5359 26.4C75.6159 26.3467 75.6826 26.36 75.7359 26.44C75.8159 26.52 75.8293 26.6 75.7759 26.68C75.6159 26.84 75.4959 27.0133 75.4159 27.2C75.3359 27.36 75.2959 27.5867 75.2959 27.88C75.2959 28.36 75.4559 28.76 75.7759 29.08C76.0959 29.3733 76.5093 29.52 77.0159 29.52C77.7093 29.52 78.2426 29.3333 78.6159 28.96C79.0159 28.56 79.2159 28.08 79.2159 27.52C79.2159 27.0133 79.0959 26.5467 78.8559 26.12C78.6426 25.6667 78.4026 25.24 78.1359 24.84C77.8693 24.4133 77.6159 23.9867 77.3759 23.56C77.1626 23.1333 77.0559 22.68 77.0559 22.2C77.0559 21.5067 77.3493 20.9333 77.9359 20.48C78.5226 20 79.3893 19.76 80.5359 19.76ZM87.8181 13.44C87.9515 13.4933 88.0715 13.6667 88.1781 13.96C88.2848 14.2267 88.3381 14.52 88.3381 14.84C88.3381 15.72 88.0048 16.6133 87.3381 17.52C86.6715 18.4 85.8048 19.1467 84.7381 19.76C84.6315 19.76 84.5648 19.72 84.5381 19.64C84.5115 19.56 84.5515 19.4533 84.6581 19.32C85.2181 18.9733 85.6715 18.5333 86.0181 18C86.3915 17.4667 86.5781 16.8933 86.5781 16.28C86.5781 15.6933 86.4315 15.3333 86.1381 15.2C86.0581 15.12 86.0581 14.9867 86.1381 14.8C86.2448 14.5867 86.3915 14.3867 86.5781 14.2C86.7648 13.9867 86.9648 13.8133 87.1781 13.68C87.4181 13.52 87.6315 13.44 87.8181 13.44ZM115.344 5.8C113.53 5.8 111.864 6.18667 110.344 6.96C108.85 7.70667 107.557 8.74667 106.464 10.08C105.397 11.3867 104.557 12.9333 103.944 14.72C103.357 16.48 103.064 18.3867 103.064 20.44C103.064 22.2533 103.384 23.6267 104.024 24.56C104.69 25.4933 105.704 25.96 107.064 25.96C108.637 25.96 109.997 25.5333 111.144 24.68C112.29 23.8 113.09 22.56 113.544 20.96C113.597 20.7467 113.77 20.5733 114.064 20.44C114.357 20.28 114.664 20.1733 114.984 20.12C115.304 20.0667 115.597 20.0667 115.864 20.12C116.13 20.1467 116.264 20.24 116.264 20.4C115.41 23.4133 114.397 26 113.224 28.16C112.05 30.32 110.73 32.08 109.264 33.44C107.797 34.8267 106.197 35.84 104.464 36.48C102.73 37.12 100.89 37.44 98.9438 37.44C96.3038 37.44 94.2904 36.8933 92.9038 35.8C91.5437 34.7067 90.8637 33.2267 90.8637 31.36C90.8637 30.24 91.2104 29.2 91.9037 28.24C92.5971 27.28 93.6638 26.5333 95.1038 26C95.2371 25.9467 95.3171 26 95.3438 26.16C95.3704 26.2933 95.3304 26.4133 95.2238 26.52C94.5838 26.8933 94.1038 27.3867 93.7838 28C93.4904 28.5867 93.3438 29.3867 93.3438 30.4C93.3438 32.4 93.9171 33.9467 95.0638 35.04C96.2371 36.16 97.8771 36.72 99.9838 36.72C101.424 36.72 102.757 36.4933 103.984 36.04C105.21 35.6133 106.344 34.9067 107.384 33.92C108.424 32.96 109.37 31.68 110.224 30.08C111.077 28.5067 111.864 26.5733 112.584 24.28C111.757 24.9733 110.81 25.56 109.744 26.04C108.704 26.4933 107.544 26.72 106.264 26.72C102.317 26.72 100.344 24.9333 100.344 21.36C100.344 20.1333 100.544 18.8667 100.944 17.56C101.37 16.2267 101.957 14.9333 102.704 13.68C103.45 12.4 104.344 11.2 105.384 10.08C106.424 8.93333 107.557 7.93333 108.784 7.08C110.037 6.22667 111.37 5.54667 112.784 5.04C114.197 4.53333 115.664 4.28 117.184 4.28C118.464 4.28 119.49 4.56 120.264 5.12C121.037 5.68 121.424 6.38667 121.424 7.24C121.424 7.53333 121.33 7.88 121.144 8.28C120.957 8.68 120.717 9.09333 120.424 9.52C120.157 9.92 119.877 10.32 119.584 10.72C119.29 11.0933 119.05 11.4267 118.864 11.72C118.784 11.7733 118.69 11.7733 118.584 11.72C118.477 11.64 118.437 11.5467 118.464 11.44C118.837 10.8533 119.104 10.3333 119.264 9.88C119.45 9.42667 119.544 8.93333 119.544 8.4C119.544 7.65333 119.197 7.04 118.504 6.56C117.837 6.05333 116.784 5.8 115.344 5.8ZM122.198 20.92C122.198 21.32 122.158 21.7733 122.078 22.28C121.998 22.7867 121.891 23.3067 121.758 23.84C122.291 22.56 122.878 21.56 123.518 20.84C124.158 20.12 124.851 19.76 125.598 19.76C125.998 19.76 126.304 19.8533 126.518 20.04C126.731 20.2267 126.838 20.4667 126.838 20.76C126.838 21.0267 126.731 21.3733 126.518 21.8C126.331 22.2267 126.171 22.52 126.038 22.68C125.984 22.7067 125.931 22.7067 125.878 22.68C125.824 22.6267 125.798 22.5733 125.798 22.52C125.798 22.3333 125.718 22.1733 125.558 22.04C125.424 21.9067 125.211 21.84 124.918 21.84C123.984 21.84 123.131 22.48 122.358 23.76C121.611 25.0133 120.918 26.8267 120.278 29.2C120.251 29.3333 120.158 29.4533 119.998 29.56C119.838 29.64 119.651 29.72 119.438 29.8C119.251 29.8533 119.051 29.9067 118.838 29.96C118.624 29.9867 118.438 30 118.278 30C117.984 30 117.904 29.84 118.038 29.52C118.278 28.96 118.504 28.36 118.718 27.72C118.958 27.0533 119.171 26.3867 119.358 25.72C119.544 25.0533 119.704 24.4133 119.838 23.8C119.971 23.16 120.078 22.5733 120.158 22.04C120.211 21.64 120.224 21.3333 120.198 21.12C120.198 20.9067 120.091 20.8 119.878 20.8C119.611 20.8 119.331 20.92 119.038 21.16C118.771 21.3733 118.518 21.6533 118.278 22C118.171 22.08 118.064 22.0933 117.958 22.04C117.878 21.96 117.864 21.8667 117.918 21.76C118.078 21.5467 118.264 21.3333 118.478 21.12C118.718 20.88 118.971 20.6667 119.238 20.48C119.531 20.2667 119.824 20.0933 120.118 19.96C120.438 19.8267 120.758 19.76 121.078 19.76C121.504 19.76 121.798 19.8667 121.958 20.08C122.118 20.2667 122.198 20.5467 122.198 20.92ZM132.394 19.76C133.328 19.76 134.021 20.04 134.474 20.6C134.928 21.16 135.154 21.8133 135.154 22.56C135.154 23.6 134.941 24.5733 134.514 25.48C134.114 26.36 133.608 27.1467 132.994 27.84C132.408 28.5067 131.768 29.04 131.074 29.44C130.381 29.8133 129.754 30 129.194 30C128.288 30 127.594 29.7333 127.114 29.2C126.661 28.64 126.434 27.9333 126.434 27.08C126.434 26.3067 126.594 25.4933 126.914 24.64C127.261 23.7867 127.701 23 128.234 22.28C128.794 21.56 129.434 20.96 130.154 20.48C130.874 20 131.621 19.76 132.394 19.76ZM130.194 28.76C131.021 28.76 131.714 28.3333 132.274 27.48C132.861 26.6 133.154 25.4 133.154 23.88C133.154 23.08 132.994 22.4133 132.674 21.88C132.354 21.3467 131.888 21.08 131.274 21.08C130.421 21.08 129.728 21.4933 129.194 22.32C128.661 23.1467 128.394 24.36 128.394 25.96C128.394 26.8933 128.554 27.6 128.874 28.08C129.221 28.5333 129.661 28.76 130.194 28.76ZM138.507 30C137.387 30 136.827 29.3867 136.827 28.16C136.827 27.7333 136.867 27.24 136.947 26.68C137.054 26.12 137.2 25.5467 137.387 24.96C137.6 24.3467 137.84 23.7333 138.107 23.12C138.374 22.5067 138.694 21.92 139.067 21.36C138.774 21.5467 138.494 21.7467 138.227 21.96C137.96 22.1467 137.72 22.3467 137.507 22.56C137.427 22.6133 137.347 22.6 137.267 22.52C137.214 22.4133 137.214 22.32 137.267 22.24C137.72 21.76 138.36 21.2667 139.187 20.76C140.04 20.2533 140.854 19.8533 141.627 19.56C141.76 19.56 141.854 19.6 141.907 19.68C141.987 19.7333 142 19.8133 141.947 19.92C141.094 21.04 140.4 22.2533 139.867 23.56C139.36 24.8667 139.107 26.1333 139.107 27.36C139.107 28.1333 139.347 28.52 139.827 28.52C140.174 28.52 140.6 28.2933 141.107 27.84C141.614 27.36 142.147 26.7467 142.707 26C143.267 25.2267 143.827 24.36 144.387 23.4C144.974 22.44 145.507 21.4667 145.987 20.48C146.067 20.32 146.294 20.16 146.667 20C147.067 19.84 147.467 19.76 147.867 19.76C148.267 19.76 148.387 19.8667 148.227 20.08C147.854 20.7733 147.52 21.4267 147.227 22.04C146.96 22.6267 146.734 23.2133 146.547 23.8C146.36 24.3867 146.214 24.9867 146.107 25.6C146.027 26.1867 145.987 26.84 145.987 27.56C145.987 28.4133 146.214 28.84 146.667 28.84C147.12 28.84 147.627 28.44 148.187 27.64C148.267 27.5867 148.347 27.5867 148.427 27.64C148.507 27.6933 148.534 27.7733 148.507 27.88C148.054 28.5733 147.547 29.1067 146.987 29.48C146.454 29.8267 145.96 30 145.507 30C144.387 30 143.827 29.3467 143.827 28.04C143.827 26.68 144.067 25.3333 144.547 24C143.534 25.84 142.467 27.3067 141.347 28.4C140.227 29.4667 139.28 30 138.507 30ZM158.268 19.76C158.855 19.76 159.321 20.0533 159.668 20.64C160.041 21.2 160.228 21.8667 160.228 22.64C160.228 23.7333 160.001 24.7333 159.548 25.64C159.121 26.52 158.548 27.2933 157.828 27.96C157.108 28.6 156.281 29.1067 155.348 29.48C154.415 29.8267 153.468 30 152.508 30C152.055 30 151.668 29.9467 151.348 29.84C150.895 31.1467 150.481 32.5467 150.108 34.04C149.761 35.5333 149.588 36.92 149.588 38.2C149.588 38.8133 149.881 39.0533 150.468 38.92C150.681 38.8933 150.881 38.84 151.068 38.76C151.281 38.68 151.481 38.5733 151.668 38.44C151.775 38.44 151.828 38.4933 151.828 38.6C151.855 38.7067 151.841 38.8133 151.788 38.92C151.628 39 151.388 39.08 151.068 39.16C150.775 39.2667 150.455 39.36 150.108 39.44C149.761 39.5467 149.415 39.6267 149.068 39.68C148.721 39.7333 148.428 39.76 148.188 39.76C147.975 39.76 147.801 39.7067 147.668 39.6C147.535 39.4933 147.468 39.3333 147.468 39.12C147.468 37.76 147.695 36.1733 148.148 34.36C148.575 32.5733 149.135 30.72 149.828 28.8C149.668 28.5867 149.575 28.4133 149.548 28.28C149.521 28.1733 149.721 28.0533 150.148 27.92C150.495 26.96 150.868 26 151.268 25.04C151.668 24.08 152.068 23.1333 152.468 22.2C152.975 21.1067 153.201 20.4267 153.148 20.16C153.121 19.8933 152.961 19.84 152.668 20C152.268 20.2133 151.828 20.5867 151.348 21.12C151.295 21.1733 151.228 21.16 151.148 21.08C151.095 20.9733 151.081 20.8933 151.108 20.84C151.295 20.6267 151.535 20.4 151.828 20.16C152.121 19.8933 152.428 19.6533 152.748 19.44C153.095 19.2267 153.428 19.0533 153.748 18.92C154.068 18.76 154.348 18.68 154.588 18.68C154.881 18.68 155.068 18.8133 155.148 19.08C155.255 19.32 155.241 19.5867 155.108 19.88C154.761 20.8133 154.308 21.8667 153.748 23.04C154.015 22.6667 154.321 22.2933 154.668 21.92C155.015 21.52 155.375 21.16 155.748 20.84C156.148 20.52 156.561 20.2667 156.988 20.08C157.415 19.8667 157.841 19.76 158.268 19.76ZM153.508 29.2C154.148 29.2 154.748 29.08 155.308 28.84C155.868 28.5733 156.348 28.2 156.748 27.72C157.175 27.2133 157.508 26.6 157.748 25.88C158.015 25.1333 158.148 24.28 158.148 23.32C158.148 22.68 158.028 22.16 157.788 21.76C157.548 21.36 157.201 21.16 156.748 21.16C156.135 21.16 155.401 21.7067 154.548 22.8C153.695 23.8933 152.908 25.4267 152.188 27.4C152.108 27.6133 152.028 27.84 151.948 28.08C151.868 28.2933 151.788 28.52 151.708 28.76C152.135 29.0533 152.735 29.2 153.508 29.2Z" fill="#111827"/>
</svg>
